<svg width="167" height="38" viewBox="0 0 167 38" fill="none" xmlns="http://www.w3.org/2000/svg">
<path d="M4.32 20.748V16.356H9.792C10.488 16.356 11.124 16.212 11.7 15.924C12.276 15.636 12.732 15.216 13.068 14.664C13.404 14.112 13.572 13.44 13.572 12.648C13.572 11.88 13.404 11.22 13.068 10.668C12.732 10.116 12.276 9.696 11.7 9.408C11.124 9.12 10.488 8.976 9.792 8.976H4.32V4.584H10.62C12.228 4.584 13.68 4.908 14.976 5.556C16.272 6.204 17.292 7.14 18.036 8.364C18.804 9.564 19.188 10.992 19.188 12.648C19.188 14.304 18.804 15.744 18.036 16.968C17.292 18.168 16.272 19.104 14.976 19.776C13.68 20.424 12.228 20.748 10.62 20.748H4.32ZM0 30V4.584H5.652V30H0Z" fill="#0D233E"/>
<path d="M27.9512 30.36C26.3432 30.36 24.9032 29.964 23.6312 29.172C22.3832 28.38 21.3872 27.3 20.6432 25.932C19.9232 24.564 19.5632 23.004 19.5632 21.252C19.5632 19.5 19.9232 17.94 20.6432 16.572C21.3872 15.204 22.3832 14.124 23.6312 13.332C24.9032 12.54 26.3432 12.144 27.9512 12.144C29.1272 12.144 30.1832 12.372 31.1192 12.828C32.0792 13.284 32.8592 13.92 33.4592 14.736C34.0592 15.528 34.3952 16.44 34.4672 17.472V25.032C34.3952 26.064 34.0592 26.988 33.4592 27.804C32.8832 28.596 32.1152 29.22 31.1552 29.676C30.1952 30.132 29.1272 30.36 27.9512 30.36ZM29.0672 25.392C30.2432 25.392 31.1912 25.008 31.9112 24.24C32.6312 23.448 32.9912 22.452 32.9912 21.252C32.9912 20.436 32.8232 19.716 32.4872 19.092C32.1752 18.468 31.7192 17.988 31.1192 17.652C30.5432 17.292 29.8712 17.112 29.1032 17.112C28.3352 17.112 27.6512 17.292 27.0512 17.652C26.4752 17.988 26.0072 18.468 25.6472 19.092C25.3112 19.716 25.1432 20.436 25.1432 21.252C25.1432 22.044 25.3112 22.752 25.6472 23.376C25.9832 24 26.4512 24.492 27.0512 24.852C27.6512 25.212 28.3232 25.392 29.0672 25.392ZM32.7752 30V25.284L33.6032 21.036L32.7752 16.788V12.504H38.1752V30H32.7752Z" fill="#0D233E"/>
<path d="M52.5293 30L46.4093 20.928L52.4933 12.504H58.6493L51.3053 21.972L51.4853 19.704L59.0093 30H52.5293ZM41.3333 30V3.864H46.8413V30H41.3333Z" fill="#0D233E"/>
<path d="M68.1322 30.396C66.2362 30.396 64.5443 30.012 63.0563 29.244C61.5923 28.452 60.4403 27.36 59.6003 25.968C58.7603 24.576 58.3403 23.004 58.3403 21.252C58.3403 19.5 58.7483 17.94 59.5643 16.572C60.4043 15.18 61.5322 14.088 62.9482 13.296C64.3642 12.504 65.9603 12.108 67.7363 12.108C69.4643 12.108 70.9883 12.48 72.3083 13.224C73.6283 13.968 74.6603 15 75.4043 16.32C76.1723 17.64 76.5563 19.152 76.5563 20.856C76.5563 21.168 76.5323 21.504 76.4843 21.864C76.4603 22.2 76.4003 22.596 76.3043 23.052L61.2202 23.088V19.308L73.9642 19.272L71.5882 20.856C71.5642 19.848 71.4082 19.02 71.1202 18.372C70.8322 17.7 70.4002 17.196 69.8242 16.86C69.2722 16.5 68.5882 16.32 67.7722 16.32C66.9082 16.32 66.1522 16.524 65.5042 16.932C64.8802 17.316 64.3883 17.868 64.0283 18.588C63.6923 19.308 63.5243 20.184 63.5243 21.216C63.5243 22.248 63.7042 23.136 64.0642 23.88C64.4482 24.6 64.9762 25.164 65.6482 25.572C66.3442 25.956 67.1603 26.148 68.0963 26.148C68.9603 26.148 69.7402 26.004 70.4362 25.716C71.1322 25.404 71.7442 24.948 72.2722 24.348L75.2962 27.372C74.4322 28.38 73.3883 29.136 72.1643 29.64C70.9403 30.144 69.5962 30.396 68.1322 30.396Z" fill="#0D233E"/>
<path d="M79.1429 30V4.692H84.0389V30H79.1429ZM82.7429 30V25.644H95.6309V30H82.7429Z" fill="#0D233E"/>
<path d="M105.638 30.36C103.886 30.36 102.302 29.964 100.886 29.172C99.4938 28.356 98.3778 27.264 97.5378 25.896C96.7218 24.504 96.3138 22.956 96.3138 21.252C96.3138 19.548 96.7218 18.024 97.5378 16.68C98.3538 15.312 99.4698 14.232 100.886 13.44C102.302 12.624 103.874 12.216 105.602 12.216C107.378 12.216 108.962 12.624 110.354 13.44C111.77 14.232 112.886 15.312 113.702 16.68C114.518 18.024 114.926 19.548 114.926 21.252C114.926 22.956 114.518 24.504 113.702 25.896C112.886 27.264 111.77 28.356 110.354 29.172C108.962 29.964 107.39 30.36 105.638 30.36ZM105.602 25.968C106.49 25.968 107.27 25.776 107.942 25.392C108.638 24.984 109.166 24.432 109.526 23.736C109.91 23.016 110.102 22.2 110.102 21.288C110.102 20.376 109.91 19.572 109.526 18.876C109.142 18.18 108.614 17.64 107.942 17.256C107.27 16.848 106.49 16.644 105.602 16.644C104.738 16.644 103.97 16.848 103.298 17.256C102.626 17.64 102.098 18.18 101.714 18.876C101.33 19.572 101.138 20.376 101.138 21.288C101.138 22.2 101.33 23.016 101.714 23.736C102.098 24.432 102.626 24.984 103.298 25.392C103.97 25.776 104.738 25.968 105.602 25.968Z" fill="#0D233E"/>
<path d="M124.514 37.704C122.666 37.704 121.034 37.368 119.618 36.696C118.202 36.048 117.074 35.124 116.234 33.924L119.222 30.936C119.894 31.728 120.638 32.328 121.454 32.736C122.294 33.168 123.302 33.384 124.478 33.384C125.942 33.384 127.094 33.012 127.934 32.268C128.798 31.524 129.23 30.492 129.23 29.172V24.816L130.022 21L129.266 17.184V12.612H133.946V29.1C133.946 30.828 133.538 32.328 132.722 33.6C131.93 34.896 130.826 35.904 129.41 36.624C127.994 37.344 126.362 37.704 124.514 37.704ZM124.298 29.532C122.738 29.532 121.334 29.16 120.086 28.416C118.838 27.648 117.854 26.604 117.134 25.284C116.438 23.964 116.09 22.488 116.09 20.856C116.09 19.224 116.438 17.76 117.134 16.464C117.854 15.168 118.838 14.148 120.086 13.404C121.334 12.636 122.738 12.252 124.298 12.252C125.594 12.252 126.734 12.504 127.718 13.008C128.726 13.512 129.518 14.208 130.094 15.096C130.67 15.96 130.982 16.98 131.03 18.156V23.628C130.982 24.78 130.658 25.812 130.058 26.724C129.482 27.612 128.69 28.308 127.682 28.812C126.698 29.292 125.57 29.532 124.298 29.532ZM125.234 25.248C126.098 25.248 126.842 25.068 127.466 24.708C128.114 24.324 128.618 23.808 128.978 23.16C129.338 22.488 129.518 21.732 129.518 20.892C129.518 20.028 129.338 19.272 128.978 18.624C128.618 17.976 128.114 17.472 127.466 17.112C126.842 16.728 126.098 16.536 125.234 16.536C124.37 16.536 123.614 16.728 122.966 17.112C122.318 17.472 121.814 17.988 121.454 18.66C121.094 19.308 120.914 20.052 120.914 20.892C120.914 21.708 121.094 22.452 121.454 23.124C121.814 23.772 122.318 24.288 122.966 24.672C123.614 25.056 124.37 25.248 125.234 25.248Z" fill="#0D233E"/>
<path d="M140.552 4.25C140.552 1.90586 142.495 0 144.885 0H155.008C156.159 0 157.262 0.444922 158.075 1.2418L165.286 8.3207C166.098 9.11758 166.552 10.2 166.552 11.3289V29.75C166.552 32.0941 164.609 34 162.219 34H144.885C142.495 34 140.552 32.0941 140.552 29.75V4.25ZM154.635 3.88477V10.0938C154.635 10.977 155.36 11.6875 156.26 11.6875H162.591L154.635 3.88477ZM148.677 17C147.776 17 147.052 17.7105 147.052 18.5938C147.052 19.477 147.776 20.1875 148.677 20.1875H158.427C159.328 20.1875 160.052 19.477 160.052 18.5938C160.052 17.7105 159.328 17 158.427 17H148.677ZM148.677 23.375C147.776 23.375 147.052 24.0855 147.052 24.9688C147.052 25.852 147.776 26.5625 148.677 26.5625H158.427C159.328 26.5625 160.052 25.852 160.052 24.9688C160.052 24.0855 159.328 23.375 158.427 23.375H148.677Z" fill="#0D233E"/>
</svg>
